<mxfile host="app.diagrams.net" modified="2023-08-20T18:02:14.838Z" agent="Mozilla/5.0 (Windows NT 10.0; Win64; x64) AppleWebKit/537.36 (KHTML, like Gecko) Chrome/115.0.0.0 Safari/537.36" etag="71E5CU22WYZuxPPWAi2N" version="21.6.8" type="device">
  <diagram id="C5RBs43oDa-KdzZeNtuy" name="Page-1">
    <mxGraphModel dx="2171" dy="2119" grid="1" gridSize="10" guides="1" tooltips="1" connect="1" arrows="1" fold="1" page="1" pageScale="1" pageWidth="827" pageHeight="1169" math="0" shadow="0">
      <root>
        <mxCell id="WIyWlLk6GJQsqaUBKTNV-0" />
        <mxCell id="WIyWlLk6GJQsqaUBKTNV-1" parent="WIyWlLk6GJQsqaUBKTNV-0" />
        <mxCell id="kchw-U7hw0C-sCnVVzNL-82" style="edgeStyle=orthogonalEdgeStyle;rounded=0;orthogonalLoop=1;jettySize=auto;html=1;" parent="WIyWlLk6GJQsqaUBKTNV-1" source="kchw-U7hw0C-sCnVVzNL-5" target="kchw-U7hw0C-sCnVVzNL-10" edge="1">
          <mxGeometry relative="1" as="geometry" />
        </mxCell>
        <mxCell id="kchw-U7hw0C-sCnVVzNL-5" value="GObject (GameObject)" style="swimlane;fontStyle=1;align=center;verticalAlign=top;childLayout=stackLayout;horizontal=1;startSize=26;horizontalStack=0;resizeParent=1;resizeParentMax=0;resizeLast=0;collapsible=1;marginBottom=0;whiteSpace=wrap;html=1;" parent="WIyWlLk6GJQsqaUBKTNV-1" vertex="1">
          <mxGeometry x="364" y="-1020" width="160" height="130" as="geometry" />
        </mxCell>
        <mxCell id="kchw-U7hw0C-sCnVVzNL-6" value="+ Unity: Transform&lt;br&gt;+ script: G Object&lt;br&gt;+ script: Scene Time&lt;br&gt;+ script: Membrane Filteration Scene" style="text;strokeColor=none;fillColor=none;align=left;verticalAlign=top;spacingLeft=4;spacingRight=4;overflow=hidden;rotatable=0;points=[[0,0.5],[1,0.5]];portConstraint=eastwest;whiteSpace=wrap;html=1;" parent="kchw-U7hw0C-sCnVVzNL-5" vertex="1">
          <mxGeometry y="26" width="160" height="84" as="geometry" />
        </mxCell>
        <mxCell id="kchw-U7hw0C-sCnVVzNL-7" value="" style="line;strokeWidth=1;fillColor=none;align=left;verticalAlign=middle;spacingTop=-1;spacingLeft=3;spacingRight=3;rotatable=0;labelPosition=right;points=[];portConstraint=eastwest;strokeColor=inherit;" parent="kchw-U7hw0C-sCnVVzNL-5" vertex="1">
          <mxGeometry y="110" width="160" height="20" as="geometry" />
        </mxCell>
        <mxCell id="kchw-U7hw0C-sCnVVzNL-31" style="edgeStyle=orthogonalEdgeStyle;rounded=0;orthogonalLoop=1;jettySize=auto;html=1;" parent="WIyWlLk6GJQsqaUBKTNV-1" source="kchw-U7hw0C-sCnVVzNL-10" target="kchw-U7hw0C-sCnVVzNL-14" edge="1">
          <mxGeometry relative="1" as="geometry">
            <Array as="points">
              <mxPoint x="342" y="-780" />
              <mxPoint x="342" y="-640" />
            </Array>
          </mxGeometry>
        </mxCell>
        <mxCell id="kchw-U7hw0C-sCnVVzNL-32" style="edgeStyle=orthogonalEdgeStyle;rounded=0;orthogonalLoop=1;jettySize=auto;html=1;" parent="WIyWlLk6GJQsqaUBKTNV-1" source="kchw-U7hw0C-sCnVVzNL-10" target="kchw-U7hw0C-sCnVVzNL-19" edge="1">
          <mxGeometry relative="1" as="geometry" />
        </mxCell>
        <mxCell id="kchw-U7hw0C-sCnVVzNL-83" style="edgeStyle=orthogonalEdgeStyle;rounded=0;orthogonalLoop=1;jettySize=auto;html=1;" parent="WIyWlLk6GJQsqaUBKTNV-1" source="kchw-U7hw0C-sCnVVzNL-10" target="kchw-U7hw0C-sCnVVzNL-78" edge="1">
          <mxGeometry relative="1" as="geometry" />
        </mxCell>
        <mxCell id="kchw-U7hw0C-sCnVVzNL-10" value="G Object (script)&lt;br&gt;" style="swimlane;fontStyle=1;align=center;verticalAlign=top;childLayout=stackLayout;horizontal=1;startSize=26;horizontalStack=0;resizeParent=1;resizeParentMax=0;resizeLast=0;collapsible=1;marginBottom=0;whiteSpace=wrap;html=1;" parent="WIyWlLk6GJQsqaUBKTNV-1" vertex="1">
          <mxGeometry x="364" y="-845" width="160" height="130" as="geometry" />
        </mxCell>
        <mxCell id="kchw-U7hw0C-sCnVVzNL-11" value="+ scene: [SerializeField]&lt;br&gt;&amp;nbsp;SceneTypes&amp;nbsp;" style="text;strokeColor=none;fillColor=none;align=left;verticalAlign=top;spacingLeft=4;spacingRight=4;overflow=hidden;rotatable=0;points=[[0,0.5],[1,0.5]];portConstraint=eastwest;whiteSpace=wrap;html=1;" parent="kchw-U7hw0C-sCnVVzNL-10" vertex="1">
          <mxGeometry y="26" width="160" height="44" as="geometry" />
        </mxCell>
        <mxCell id="kchw-U7hw0C-sCnVVzNL-12" value="" style="line;strokeWidth=1;fillColor=none;align=left;verticalAlign=middle;spacingTop=-1;spacingLeft=3;spacingRight=3;rotatable=0;labelPosition=right;points=[];portConstraint=eastwest;strokeColor=inherit;" parent="kchw-U7hw0C-sCnVVzNL-10" vertex="1">
          <mxGeometry y="70" width="160" height="8" as="geometry" />
        </mxCell>
        <mxCell id="kchw-U7hw0C-sCnVVzNL-13" value="+ Start(): private void&lt;br&gt;+ Update(): private void" style="text;strokeColor=none;fillColor=none;align=left;verticalAlign=top;spacingLeft=4;spacingRight=4;overflow=hidden;rotatable=0;points=[[0,0.5],[1,0.5]];portConstraint=eastwest;whiteSpace=wrap;html=1;" parent="kchw-U7hw0C-sCnVVzNL-10" vertex="1">
          <mxGeometry y="78" width="160" height="52" as="geometry" />
        </mxCell>
        <mxCell id="kchw-U7hw0C-sCnVVzNL-14" value="SceneTypes (script)" style="swimlane;fontStyle=1;align=center;verticalAlign=top;childLayout=stackLayout;horizontal=1;startSize=26;horizontalStack=0;resizeParent=1;resizeParentMax=0;resizeLast=0;collapsible=1;marginBottom=0;whiteSpace=wrap;html=1;" parent="WIyWlLk6GJQsqaUBKTNV-1" vertex="1">
          <mxGeometry x="160" y="-745" width="160" height="250" as="geometry" />
        </mxCell>
        <mxCell id="kchw-U7hw0C-sCnVVzNL-15" value="+ public enum" style="text;strokeColor=none;fillColor=none;align=left;verticalAlign=top;spacingLeft=4;spacingRight=4;overflow=hidden;rotatable=0;points=[[0,0.5],[1,0.5]];portConstraint=eastwest;whiteSpace=wrap;html=1;" parent="kchw-U7hw0C-sCnVVzNL-14" vertex="1">
          <mxGeometry y="26" width="160" height="26" as="geometry" />
        </mxCell>
        <mxCell id="kchw-U7hw0C-sCnVVzNL-16" value="" style="line;strokeWidth=1;fillColor=none;align=left;verticalAlign=middle;spacingTop=-1;spacingLeft=3;spacingRight=3;rotatable=0;labelPosition=right;points=[];portConstraint=eastwest;strokeColor=inherit;" parent="kchw-U7hw0C-sCnVVzNL-14" vertex="1">
          <mxGeometry y="52" width="160" height="8" as="geometry" />
        </mxCell>
        <mxCell id="kchw-U7hw0C-sCnVVzNL-17" value="+ MainMenu,&lt;br&gt;Tutorial,&lt;br&gt;MedicinePreparation,&lt;br&gt;MembraneFilteration,&lt;br&gt;ChangingRoom,&lt;br&gt;Restart,&lt;br&gt;FireHazard,&lt;br&gt;FireExtinguisherTutorial,&lt;br&gt;FireBlanketTutorial,&lt;br&gt;EyeShowerTutorial,&lt;br&gt;EmergencyShowerTutorial,&lt;br&gt;Laboratory" style="text;strokeColor=none;fillColor=none;align=left;verticalAlign=top;spacingLeft=4;spacingRight=4;overflow=hidden;rotatable=0;points=[[0,0.5],[1,0.5]];portConstraint=eastwest;whiteSpace=wrap;html=1;" parent="kchw-U7hw0C-sCnVVzNL-14" vertex="1">
          <mxGeometry y="60" width="160" height="190" as="geometry" />
        </mxCell>
        <mxCell id="kchw-U7hw0C-sCnVVzNL-30" style="edgeStyle=orthogonalEdgeStyle;rounded=0;orthogonalLoop=1;jettySize=auto;html=1;" parent="WIyWlLk6GJQsqaUBKTNV-1" source="kchw-U7hw0C-sCnVVzNL-19" target="kchw-U7hw0C-sCnVVzNL-26" edge="1">
          <mxGeometry relative="1" as="geometry" />
        </mxCell>
        <mxCell id="kchw-U7hw0C-sCnVVzNL-37" style="edgeStyle=orthogonalEdgeStyle;rounded=0;orthogonalLoop=1;jettySize=auto;html=1;" parent="WIyWlLk6GJQsqaUBKTNV-1" source="kchw-U7hw0C-sCnVVzNL-19" target="kchw-U7hw0C-sCnVVzNL-33" edge="1">
          <mxGeometry relative="1" as="geometry">
            <Array as="points">
              <mxPoint x="680" y="-416" />
              <mxPoint x="680" y="-371" />
            </Array>
          </mxGeometry>
        </mxCell>
        <mxCell id="kchw-U7hw0C-sCnVVzNL-42" style="edgeStyle=orthogonalEdgeStyle;rounded=0;orthogonalLoop=1;jettySize=auto;html=1;" parent="WIyWlLk6GJQsqaUBKTNV-1" source="kchw-U7hw0C-sCnVVzNL-19" target="kchw-U7hw0C-sCnVVzNL-38" edge="1">
          <mxGeometry relative="1" as="geometry">
            <Array as="points">
              <mxPoint x="680" y="-416" />
            </Array>
          </mxGeometry>
        </mxCell>
        <mxCell id="kchw-U7hw0C-sCnVVzNL-71" style="edgeStyle=orthogonalEdgeStyle;rounded=0;orthogonalLoop=1;jettySize=auto;html=1;" parent="WIyWlLk6GJQsqaUBKTNV-1" source="kchw-U7hw0C-sCnVVzNL-19" target="kchw-U7hw0C-sCnVVzNL-66" edge="1">
          <mxGeometry relative="1" as="geometry" />
        </mxCell>
        <mxCell id="kchw-U7hw0C-sCnVVzNL-84" style="edgeStyle=orthogonalEdgeStyle;rounded=0;orthogonalLoop=1;jettySize=auto;html=1;" parent="WIyWlLk6GJQsqaUBKTNV-1" source="kchw-U7hw0C-sCnVVzNL-19" target="kchw-U7hw0C-sCnVVzNL-14" edge="1">
          <mxGeometry relative="1" as="geometry">
            <Array as="points">
              <mxPoint x="380" y="-470" />
              <mxPoint x="380" y="-620" />
            </Array>
          </mxGeometry>
        </mxCell>
        <mxCell id="kchw-U7hw0C-sCnVVzNL-19" value="G (script)" style="swimlane;fontStyle=1;align=center;verticalAlign=top;childLayout=stackLayout;horizontal=1;startSize=26;horizontalStack=0;resizeParent=1;resizeParentMax=0;resizeLast=0;collapsible=1;marginBottom=0;whiteSpace=wrap;html=1;" parent="WIyWlLk6GJQsqaUBKTNV-1" vertex="1">
          <mxGeometry x="430" y="-611" width="160" height="370" as="geometry" />
        </mxCell>
        <mxCell id="kchw-U7hw0C-sCnVVzNL-20" value="public sealed class&lt;br&gt;+ instance: private static read only G&lt;br&gt;+ Instance: public AudioManager&lt;br&gt;+ Progress: public ProgressManager&lt;br&gt;+ Pipeline: public PipelineManager&lt;br&gt;+ CurrentSceneTypes: public SceneTypes&lt;br&gt;+ sceneScript: private SceneScript" style="text;strokeColor=none;fillColor=none;align=left;verticalAlign=top;spacingLeft=4;spacingRight=4;overflow=hidden;rotatable=0;points=[[0,0.5],[1,0.5]];portConstraint=eastwest;whiteSpace=wrap;html=1;" parent="kchw-U7hw0C-sCnVVzNL-19" vertex="1">
          <mxGeometry y="26" width="160" height="204" as="geometry" />
        </mxCell>
        <mxCell id="kchw-U7hw0C-sCnVVzNL-21" value="" style="line;strokeWidth=1;fillColor=none;align=left;verticalAlign=middle;spacingTop=-1;spacingLeft=3;spacingRight=3;rotatable=0;labelPosition=right;points=[];portConstraint=eastwest;strokeColor=inherit;" parent="kchw-U7hw0C-sCnVVzNL-19" vertex="1">
          <mxGeometry y="230" width="160" height="8" as="geometry" />
        </mxCell>
        <mxCell id="kchw-U7hw0C-sCnVVzNL-22" value="+ SceneScript(): public&lt;br&gt;+ G(): static&lt;br&gt;+ G(): private&lt;br&gt;+ ResetProgressManager(): public void&lt;br&gt;+ Update(float): public void&lt;br&gt;+ CheckConfiguration(): private static void" style="text;strokeColor=none;fillColor=none;align=left;verticalAlign=top;spacingLeft=4;spacingRight=4;overflow=hidden;rotatable=0;points=[[0,0.5],[1,0.5]];portConstraint=eastwest;whiteSpace=wrap;html=1;" parent="kchw-U7hw0C-sCnVVzNL-19" vertex="1">
          <mxGeometry y="238" width="160" height="132" as="geometry" />
        </mxCell>
        <mxCell id="kchw-U7hw0C-sCnVVzNL-57" style="edgeStyle=orthogonalEdgeStyle;rounded=0;orthogonalLoop=1;jettySize=auto;html=1;" parent="WIyWlLk6GJQsqaUBKTNV-1" source="kchw-U7hw0C-sCnVVzNL-26" target="kchw-U7hw0C-sCnVVzNL-53" edge="1">
          <mxGeometry relative="1" as="geometry">
            <Array as="points">
              <mxPoint x="120" y="10" />
              <mxPoint x="120" y="10" />
            </Array>
          </mxGeometry>
        </mxCell>
        <mxCell id="kchw-U7hw0C-sCnVVzNL-63" style="edgeStyle=orthogonalEdgeStyle;rounded=0;orthogonalLoop=1;jettySize=auto;html=1;" parent="WIyWlLk6GJQsqaUBKTNV-1" source="kchw-U7hw0C-sCnVVzNL-26" target="kchw-U7hw0C-sCnVVzNL-59" edge="1">
          <mxGeometry relative="1" as="geometry">
            <Array as="points">
              <mxPoint x="-90" y="-40" />
              <mxPoint x="-90" y="490" />
              <mxPoint x="-190" y="490" />
            </Array>
          </mxGeometry>
        </mxCell>
        <mxCell id="kchw-U7hw0C-sCnVVzNL-90" style="edgeStyle=orthogonalEdgeStyle;rounded=0;orthogonalLoop=1;jettySize=auto;html=1;" parent="WIyWlLk6GJQsqaUBKTNV-1" source="kchw-U7hw0C-sCnVVzNL-26" target="kchw-U7hw0C-sCnVVzNL-85" edge="1">
          <mxGeometry relative="1" as="geometry">
            <Array as="points">
              <mxPoint x="-100" y="-230" />
              <mxPoint x="-100" y="-755" />
            </Array>
          </mxGeometry>
        </mxCell>
        <mxCell id="W0nB9QTuxgTVNlyttxNB-0" style="edgeStyle=orthogonalEdgeStyle;rounded=0;orthogonalLoop=1;jettySize=auto;html=1;" edge="1" parent="WIyWlLk6GJQsqaUBKTNV-1" source="kchw-U7hw0C-sCnVVzNL-26" target="kchw-U7hw0C-sCnVVzNL-91">
          <mxGeometry relative="1" as="geometry">
            <Array as="points">
              <mxPoint x="260" y="140" />
              <mxPoint x="260" y="140" />
            </Array>
          </mxGeometry>
        </mxCell>
        <mxCell id="W0nB9QTuxgTVNlyttxNB-5" style="edgeStyle=orthogonalEdgeStyle;rounded=0;orthogonalLoop=1;jettySize=auto;html=1;" edge="1" parent="WIyWlLk6GJQsqaUBKTNV-1" source="kchw-U7hw0C-sCnVVzNL-26" target="W0nB9QTuxgTVNlyttxNB-1">
          <mxGeometry relative="1" as="geometry" />
        </mxCell>
        <mxCell id="W0nB9QTuxgTVNlyttxNB-8" style="edgeStyle=orthogonalEdgeStyle;rounded=0;orthogonalLoop=1;jettySize=auto;html=1;" edge="1" parent="WIyWlLk6GJQsqaUBKTNV-1" source="kchw-U7hw0C-sCnVVzNL-26" target="kchw-U7hw0C-sCnVVzNL-73">
          <mxGeometry relative="1" as="geometry">
            <Array as="points">
              <mxPoint x="-280" y="-160" />
              <mxPoint x="-280" y="-160" />
            </Array>
          </mxGeometry>
        </mxCell>
        <mxCell id="kchw-U7hw0C-sCnVVzNL-26" value="ProgressManager (script)" style="swimlane;fontStyle=1;align=center;verticalAlign=top;childLayout=stackLayout;horizontal=1;startSize=26;horizontalStack=0;resizeParent=1;resizeParentMax=0;resizeLast=0;collapsible=1;marginBottom=0;whiteSpace=wrap;html=1;" parent="WIyWlLk6GJQsqaUBKTNV-1" vertex="1">
          <mxGeometry x="50" y="-320" width="260" height="320" as="geometry" />
        </mxCell>
        <mxCell id="kchw-U7hw0C-sCnVVzNL-27" value="+ scenarioPackages: private List&amp;lt;Package&amp;gt;&lt;br&gt;+ scenarioTasks: private List&amp;lt;Task&amp;gt;&lt;br&gt;+ Calculator: public ScoreCalculator&lt;br&gt;+ CurrentPackage: public Package" style="text;strokeColor=none;fillColor=none;align=left;verticalAlign=top;spacingLeft=4;spacingRight=4;overflow=hidden;rotatable=0;points=[[0,0.5],[1,0.5]];portConstraint=eastwest;whiteSpace=wrap;html=1;" parent="kchw-U7hw0C-sCnVVzNL-26" vertex="1">
          <mxGeometry y="26" width="260" height="74" as="geometry" />
        </mxCell>
        <mxCell id="kchw-U7hw0C-sCnVVzNL-28" value="" style="line;strokeWidth=1;fillColor=none;align=left;verticalAlign=middle;spacingTop=-1;spacingLeft=3;spacingRight=3;rotatable=0;labelPosition=right;points=[];portConstraint=eastwest;strokeColor=inherit;" parent="kchw-U7hw0C-sCnVVzNL-26" vertex="1">
          <mxGeometry y="100" width="260" height="8" as="geometry" />
        </mxCell>
        <mxCell id="kchw-U7hw0C-sCnVVzNL-29" value="+ ProgressManager(): constructor&lt;br&gt;+ SetSceneType(SceneTypes): public void&lt;br&gt;+ GenerateScenarioOne(): private void&lt;br&gt;+ GenerateScenarioTwo(): private void&lt;br&gt;+ GenerateScenarioThree(): private void&lt;br&gt;+ CreatePackage(PackageName, List&amp;lt;TaskType&amp;gt;: private Package&lt;br&gt;+ UpdateDescription(): public void&lt;br&gt;+ ChangePackage(): public void&lt;br&gt;+ FinishScenario(): public void&lt;br&gt;+ ForceCloseActiveTasksInPackage(Task, Package): public void&lt;br&gt;+ SetProgress(byte[]): public void&lt;br&gt;" style="text;strokeColor=none;fillColor=none;align=left;verticalAlign=top;spacingLeft=4;spacingRight=4;overflow=hidden;rotatable=0;points=[[0,0.5],[1,0.5]];portConstraint=eastwest;whiteSpace=wrap;html=1;" parent="kchw-U7hw0C-sCnVVzNL-26" vertex="1">
          <mxGeometry y="108" width="260" height="212" as="geometry" />
        </mxCell>
        <mxCell id="kchw-U7hw0C-sCnVVzNL-52" style="edgeStyle=orthogonalEdgeStyle;rounded=0;orthogonalLoop=1;jettySize=auto;html=1;" parent="WIyWlLk6GJQsqaUBKTNV-1" source="kchw-U7hw0C-sCnVVzNL-33" target="kchw-U7hw0C-sCnVVzNL-43" edge="1">
          <mxGeometry relative="1" as="geometry" />
        </mxCell>
        <mxCell id="kchw-U7hw0C-sCnVVzNL-33" value="PipelineManager (script)" style="swimlane;fontStyle=1;align=center;verticalAlign=top;childLayout=stackLayout;horizontal=1;startSize=26;horizontalStack=0;resizeParent=1;resizeParentMax=0;resizeLast=0;collapsible=1;marginBottom=0;whiteSpace=wrap;html=1;" parent="WIyWlLk6GJQsqaUBKTNV-1" vertex="1">
          <mxGeometry x="710" y="-460" width="160" height="178" as="geometry" />
        </mxCell>
        <mxCell id="kchw-U7hw0C-sCnVVzNL-34" value="+ pipeLines: private List&amp;lt;Pipeline&amp;gt;" style="text;strokeColor=none;fillColor=none;align=left;verticalAlign=top;spacingLeft=4;spacingRight=4;overflow=hidden;rotatable=0;points=[[0,0.5],[1,0.5]];portConstraint=eastwest;whiteSpace=wrap;html=1;" parent="kchw-U7hw0C-sCnVVzNL-33" vertex="1">
          <mxGeometry y="26" width="160" height="44" as="geometry" />
        </mxCell>
        <mxCell id="kchw-U7hw0C-sCnVVzNL-35" value="" style="line;strokeWidth=1;fillColor=none;align=left;verticalAlign=middle;spacingTop=-1;spacingLeft=3;spacingRight=3;rotatable=0;labelPosition=right;points=[];portConstraint=eastwest;strokeColor=inherit;" parent="kchw-U7hw0C-sCnVVzNL-33" vertex="1">
          <mxGeometry y="70" width="160" height="8" as="geometry" />
        </mxCell>
        <mxCell id="kchw-U7hw0C-sCnVVzNL-36" value="+ PipelineManager(): constructor&lt;br&gt;+ New(): public Pipeline&lt;br&gt;+ Add(Pipeline): public Pipeline&lt;br&gt;+ Update(float): public void" style="text;strokeColor=none;fillColor=none;align=left;verticalAlign=top;spacingLeft=4;spacingRight=4;overflow=hidden;rotatable=0;points=[[0,0.5],[1,0.5]];portConstraint=eastwest;whiteSpace=wrap;html=1;" parent="kchw-U7hw0C-sCnVVzNL-33" vertex="1">
          <mxGeometry y="78" width="160" height="100" as="geometry" />
        </mxCell>
        <mxCell id="kchw-U7hw0C-sCnVVzNL-38" value="AudioManager (script)" style="swimlane;fontStyle=1;align=center;verticalAlign=top;childLayout=stackLayout;horizontal=1;startSize=26;horizontalStack=0;resizeParent=1;resizeParentMax=0;resizeLast=0;collapsible=1;marginBottom=0;whiteSpace=wrap;html=1;" parent="WIyWlLk6GJQsqaUBKTNV-1" vertex="1">
          <mxGeometry x="580" y="60" width="240" height="420" as="geometry" />
        </mxCell>
        <mxCell id="kchw-U7hw0C-sCnVVzNL-39" value="+ AudioClipType: public enum&lt;br&gt;&lt;span style=&quot;white-space: pre;&quot;&gt;&#x9;&lt;/span&gt;+ LockedItem,&lt;br&gt;&lt;span style=&quot;white-space: pre;&quot;&gt;&#x9;&lt;/span&gt;MistakeMessage,&lt;br&gt;&lt;span style=&quot;white-space: pre;&quot;&gt;&#x9;&lt;/span&gt;TaskCompletedBeep,&lt;br&gt;&lt;span style=&quot;white-space: pre;&quot;&gt;&#x9;&lt;/span&gt;MinusPoint,&lt;br&gt;+ AUDIO_FILE_LOCATION: private const string&lt;br&gt;+ audioClips: private Dictionary&amp;lt;AudioClipType, AudioClipData&amp;gt;" style="text;strokeColor=none;fillColor=none;align=left;verticalAlign=top;spacingLeft=4;spacingRight=4;overflow=hidden;rotatable=0;points=[[0,0.5],[1,0.5]];portConstraint=eastwest;whiteSpace=wrap;html=1;" parent="kchw-U7hw0C-sCnVVzNL-38" vertex="1">
          <mxGeometry y="26" width="240" height="154" as="geometry" />
        </mxCell>
        <mxCell id="kchw-U7hw0C-sCnVVzNL-40" value="" style="line;strokeWidth=1;fillColor=none;align=left;verticalAlign=middle;spacingTop=-1;spacingLeft=3;spacingRight=3;rotatable=0;labelPosition=right;points=[];portConstraint=eastwest;strokeColor=inherit;" parent="kchw-U7hw0C-sCnVVzNL-38" vertex="1">
          <mxGeometry y="180" width="240" height="8" as="geometry" />
        </mxCell>
        <mxCell id="kchw-U7hw0C-sCnVVzNL-41" value="+ Play(AudioClipType, GameObject, float): public void&lt;br&gt;+ GetAudioSource(GameObject, AudioClipType): private AudioSource&lt;br&gt;+ GetDefaultAudioSource(AudioClipType): private GameObject&lt;br&gt;+ GetAudioClip(AudioClipType): private AudioClip&lt;br&gt;+ AudioClipData: private class&lt;br&gt;&lt;span style=&quot;white-space: pre;&quot;&gt;&#x9;&lt;/span&gt;+ public: string&lt;br&gt;&lt;span style=&quot;white-space: pre;&quot;&gt;&#x9;&lt;/span&gt;+ public: string&lt;br&gt;&lt;span style=&quot;white-space: pre;&quot;&gt;&#x9;&lt;/span&gt;+ public: int&lt;br&gt;&lt;span style=&quot;white-space: pre;&quot;&gt;&#x9;&lt;/span&gt;+ public: AudioClip&lt;br&gt;&lt;span style=&quot;white-space: pre;&quot;&gt;&#x9;&lt;/span&gt;+ AudioClipData(string, string, int): constructor" style="text;strokeColor=none;fillColor=none;align=left;verticalAlign=top;spacingLeft=4;spacingRight=4;overflow=hidden;rotatable=0;points=[[0,0.5],[1,0.5]];portConstraint=eastwest;whiteSpace=wrap;html=1;" parent="kchw-U7hw0C-sCnVVzNL-38" vertex="1">
          <mxGeometry y="188" width="240" height="232" as="geometry" />
        </mxCell>
        <mxCell id="kchw-U7hw0C-sCnVVzNL-51" style="edgeStyle=orthogonalEdgeStyle;rounded=0;orthogonalLoop=1;jettySize=auto;html=1;" parent="WIyWlLk6GJQsqaUBKTNV-1" source="kchw-U7hw0C-sCnVVzNL-43" target="kchw-U7hw0C-sCnVVzNL-47" edge="1">
          <mxGeometry relative="1" as="geometry" />
        </mxCell>
        <mxCell id="kchw-U7hw0C-sCnVVzNL-43" value="Pipeline (script)" style="swimlane;fontStyle=1;align=center;verticalAlign=top;childLayout=stackLayout;horizontal=1;startSize=26;horizontalStack=0;resizeParent=1;resizeParentMax=0;resizeLast=0;collapsible=1;marginBottom=0;whiteSpace=wrap;html=1;" parent="WIyWlLk6GJQsqaUBKTNV-1" vertex="1">
          <mxGeometry x="950" y="-611" width="160" height="480" as="geometry" />
        </mxCell>
        <mxCell id="kchw-U7hw0C-sCnVVzNL-44" value="+ public delegate void VoidFunction()&lt;br&gt;+ public delegate void TFunction&amp;lt;T&amp;gt;(T)&lt;br&gt;+ public delegate T GetTFunction&amp;lt;T&amp;gt;()&lt;br&gt;+ IsDoen: public bool&lt;br&gt;+ Count: public int&lt;br&gt;+ actions: private List&amp;lt;PipelineAction&amp;gt;&lt;br&gt;+ isAborted: private bool" style="text;strokeColor=none;fillColor=none;align=left;verticalAlign=top;spacingLeft=4;spacingRight=4;overflow=hidden;rotatable=0;points=[[0,0.5],[1,0.5]];portConstraint=eastwest;whiteSpace=wrap;html=1;" parent="kchw-U7hw0C-sCnVVzNL-43" vertex="1">
          <mxGeometry y="26" width="160" height="174" as="geometry" />
        </mxCell>
        <mxCell id="kchw-U7hw0C-sCnVVzNL-45" value="" style="line;strokeWidth=1;fillColor=none;align=left;verticalAlign=middle;spacingTop=-1;spacingLeft=3;spacingRight=3;rotatable=0;labelPosition=right;points=[];portConstraint=eastwest;strokeColor=inherit;" parent="kchw-U7hw0C-sCnVVzNL-43" vertex="1">
          <mxGeometry y="200" width="160" height="8" as="geometry" />
        </mxCell>
        <mxCell id="kchw-U7hw0C-sCnVVzNL-46" value="+ Pipeline(): constructor&lt;br&gt;+ Func(VoidFunction): public Pipeline&lt;br&gt;+ PreFunc(VoidFunction): public Pipeline&lt;br&gt;+ TFunc&amp;lt;T&amp;gt;(TFunction&amp;lt;T&amp;gt;, GetTFunction&amp;lt;T&amp;gt;): public Pipeline&lt;br&gt;+ PreTFunc&amp;lt;T&amp;gt;(TFunction&amp;lt;T&amp;gt;, GetTFunction&amp;lt;T&amp;gt;): public Pipeline&lt;br&gt;+ Delay(float): public Pipeline&lt;br&gt;+ PreDelay(float): public Pipeline&lt;br&gt;+ Abort(): public void&lt;br&gt;+ Update(float): public void" style="text;strokeColor=none;fillColor=none;align=left;verticalAlign=top;spacingLeft=4;spacingRight=4;overflow=hidden;rotatable=0;points=[[0,0.5],[1,0.5]];portConstraint=eastwest;whiteSpace=wrap;html=1;" parent="kchw-U7hw0C-sCnVVzNL-43" vertex="1">
          <mxGeometry y="208" width="160" height="272" as="geometry" />
        </mxCell>
        <mxCell id="kchw-U7hw0C-sCnVVzNL-47" value="PipelineAction (script)" style="swimlane;fontStyle=1;align=center;verticalAlign=top;childLayout=stackLayout;horizontal=1;startSize=26;horizontalStack=0;resizeParent=1;resizeParentMax=0;resizeLast=0;collapsible=1;marginBottom=0;whiteSpace=wrap;html=1;" parent="WIyWlLk6GJQsqaUBKTNV-1" vertex="1">
          <mxGeometry x="1160" y="-601" width="160" height="140" as="geometry" />
        </mxCell>
        <mxCell id="kchw-U7hw0C-sCnVVzNL-48" value="abstract class&lt;br&gt;+ IsDone: public bool" style="text;strokeColor=none;fillColor=none;align=left;verticalAlign=top;spacingLeft=4;spacingRight=4;overflow=hidden;rotatable=0;points=[[0,0.5],[1,0.5]];portConstraint=eastwest;whiteSpace=wrap;html=1;" parent="kchw-U7hw0C-sCnVVzNL-47" vertex="1">
          <mxGeometry y="26" width="160" height="44" as="geometry" />
        </mxCell>
        <mxCell id="kchw-U7hw0C-sCnVVzNL-49" value="" style="line;strokeWidth=1;fillColor=none;align=left;verticalAlign=middle;spacingTop=-1;spacingLeft=3;spacingRight=3;rotatable=0;labelPosition=right;points=[];portConstraint=eastwest;strokeColor=inherit;" parent="kchw-U7hw0C-sCnVVzNL-47" vertex="1">
          <mxGeometry y="70" width="160" height="8" as="geometry" />
        </mxCell>
        <mxCell id="kchw-U7hw0C-sCnVVzNL-50" value="+ Update(float): public void&lt;br&gt;+ UpdateAction(float): protected abstract void" style="text;strokeColor=none;fillColor=none;align=left;verticalAlign=top;spacingLeft=4;spacingRight=4;overflow=hidden;rotatable=0;points=[[0,0.5],[1,0.5]];portConstraint=eastwest;whiteSpace=wrap;html=1;" parent="kchw-U7hw0C-sCnVVzNL-47" vertex="1">
          <mxGeometry y="78" width="160" height="62" as="geometry" />
        </mxCell>
        <mxCell id="kchw-U7hw0C-sCnVVzNL-58" style="edgeStyle=orthogonalEdgeStyle;rounded=0;orthogonalLoop=1;jettySize=auto;html=1;" parent="WIyWlLk6GJQsqaUBKTNV-1" source="kchw-U7hw0C-sCnVVzNL-53" target="kchw-U7hw0C-sCnVVzNL-26" edge="1">
          <mxGeometry relative="1" as="geometry">
            <Array as="points">
              <mxPoint x="100" y="20" />
              <mxPoint x="100" y="20" />
            </Array>
          </mxGeometry>
        </mxCell>
        <mxCell id="kchw-U7hw0C-sCnVVzNL-64" style="edgeStyle=orthogonalEdgeStyle;rounded=0;orthogonalLoop=1;jettySize=auto;html=1;" parent="WIyWlLk6GJQsqaUBKTNV-1" source="kchw-U7hw0C-sCnVVzNL-53" target="kchw-U7hw0C-sCnVVzNL-59" edge="1">
          <mxGeometry relative="1" as="geometry">
            <Array as="points">
              <mxPoint x="100" y="470" />
            </Array>
          </mxGeometry>
        </mxCell>
        <mxCell id="kchw-U7hw0C-sCnVVzNL-96" style="edgeStyle=orthogonalEdgeStyle;rounded=0;orthogonalLoop=1;jettySize=auto;html=1;" parent="WIyWlLk6GJQsqaUBKTNV-1" source="kchw-U7hw0C-sCnVVzNL-53" target="kchw-U7hw0C-sCnVVzNL-91" edge="1">
          <mxGeometry relative="1" as="geometry">
            <Array as="points">
              <mxPoint x="220" y="330" />
              <mxPoint x="220" y="330" />
            </Array>
          </mxGeometry>
        </mxCell>
        <mxCell id="kchw-U7hw0C-sCnVVzNL-97" style="edgeStyle=orthogonalEdgeStyle;rounded=0;orthogonalLoop=1;jettySize=auto;html=1;" parent="WIyWlLk6GJQsqaUBKTNV-1" source="kchw-U7hw0C-sCnVVzNL-53" target="kchw-U7hw0C-sCnVVzNL-73" edge="1">
          <mxGeometry relative="1" as="geometry">
            <Array as="points">
              <mxPoint y="235" />
              <mxPoint y="-90" />
            </Array>
          </mxGeometry>
        </mxCell>
        <mxCell id="kchw-U7hw0C-sCnVVzNL-53" value="Package (script)" style="swimlane;fontStyle=1;align=center;verticalAlign=top;childLayout=stackLayout;horizontal=1;startSize=26;horizontalStack=0;resizeParent=1;resizeParentMax=0;resizeLast=0;collapsible=1;marginBottom=0;whiteSpace=wrap;html=1;" parent="WIyWlLk6GJQsqaUBKTNV-1" vertex="1">
          <mxGeometry x="20" y="60" width="160" height="350" as="geometry" />
        </mxCell>
        <mxCell id="kchw-U7hw0C-sCnVVzNL-54" value="+ manager: private ProgressManager&lt;br&gt;+ packageCompleted: public PackageName&lt;br&gt;+ packageCompleted: public bool&lt;br&gt;+ activeTasks: public List&amp;lt;Task&amp;gt;&lt;br&gt;+ doneTypes: public List&amp;lt;TaskType&amp;gt;" style="text;strokeColor=none;fillColor=none;align=left;verticalAlign=top;spacingLeft=4;spacingRight=4;overflow=hidden;rotatable=0;points=[[0,0.5],[1,0.5]];portConstraint=eastwest;whiteSpace=wrap;html=1;" parent="kchw-U7hw0C-sCnVVzNL-53" vertex="1">
          <mxGeometry y="26" width="160" height="164" as="geometry" />
        </mxCell>
        <mxCell id="kchw-U7hw0C-sCnVVzNL-55" value="" style="line;strokeWidth=1;fillColor=none;align=left;verticalAlign=middle;spacingTop=-1;spacingLeft=3;spacingRight=3;rotatable=0;labelPosition=right;points=[];portConstraint=eastwest;strokeColor=inherit;" parent="kchw-U7hw0C-sCnVVzNL-53" vertex="1">
          <mxGeometry y="190" width="160" height="8" as="geometry" />
        </mxCell>
        <mxCell id="kchw-U7hw0C-sCnVVzNL-56" value="+ CurrentTask(): public Task&lt;br&gt;+ Package(PackageName, ProgressManager): constructor&lt;br&gt;+ RemoveTask(Task): public void&lt;br&gt;+ CheckChangePackage(): private void&lt;br&gt;+ StartTask(): public void" style="text;strokeColor=none;fillColor=none;align=left;verticalAlign=top;spacingLeft=4;spacingRight=4;overflow=hidden;rotatable=0;points=[[0,0.5],[1,0.5]];portConstraint=eastwest;whiteSpace=wrap;html=1;" parent="kchw-U7hw0C-sCnVVzNL-53" vertex="1">
          <mxGeometry y="198" width="160" height="152" as="geometry" />
        </mxCell>
        <mxCell id="kchw-U7hw0C-sCnVVzNL-77" style="edgeStyle=orthogonalEdgeStyle;rounded=0;orthogonalLoop=1;jettySize=auto;html=1;" parent="WIyWlLk6GJQsqaUBKTNV-1" source="kchw-U7hw0C-sCnVVzNL-59" target="kchw-U7hw0C-sCnVVzNL-73" edge="1">
          <mxGeometry relative="1" as="geometry" />
        </mxCell>
        <mxCell id="kchw-U7hw0C-sCnVVzNL-59" value="Task (script)" style="swimlane;fontStyle=1;align=center;verticalAlign=top;childLayout=stackLayout;horizontal=1;startSize=26;horizontalStack=0;resizeParent=1;resizeParentMax=0;resizeLast=0;collapsible=1;marginBottom=0;whiteSpace=wrap;html=1;" parent="WIyWlLk6GJQsqaUBKTNV-1" vertex="1">
          <mxGeometry x="-390" y="420" width="260" height="830" as="geometry" />
        </mxCell>
        <mxCell id="kchw-U7hw0C-sCnVVzNL-60" value="+ Completed: public bool&lt;br&gt;+ Points: public readonly int&lt;br&gt;+ package: protected Package&lt;br&gt;+ started: private bool&lt;br&gt;+ Started: public bool&lt;br&gt;+ TaskType: public TaskType&lt;br&gt;+ checkAllClearConditions: protected bool&lt;br&gt;+ eventsUnsubscribed: protected bool&lt;br&gt;+ isFinished: protected bool&lt;br&gt;+ requiresPreviousTaskCompletion: protected bool&lt;br&gt;+ previousTasksCompleted: protected bool&lt;br&gt;+ clearConditions: protected Dictionary&amp;lt;int, bool&amp;gt;&lt;br&gt;+ subscribedEvents: protected Dictionary&amp;lt;Events.EventDataCallback, EventType&amp;gt;&lt;br&gt;+ description: protected string&lt;br&gt;+ Description: public virtual string&lt;br&gt;+ hint: protected string&lt;br&gt;+ Hint: public virtual string&lt;br&gt;+ success: protected string" style="text;strokeColor=none;fillColor=none;align=left;verticalAlign=top;spacingLeft=4;spacingRight=4;overflow=hidden;rotatable=0;points=[[0,0.5],[1,0.5]];portConstraint=eastwest;whiteSpace=wrap;html=1;" parent="kchw-U7hw0C-sCnVVzNL-59" vertex="1">
          <mxGeometry y="26" width="260" height="334" as="geometry" />
        </mxCell>
        <mxCell id="kchw-U7hw0C-sCnVVzNL-61" value="" style="line;strokeWidth=1;fillColor=none;align=left;verticalAlign=middle;spacingTop=-1;spacingLeft=3;spacingRight=3;rotatable=0;labelPosition=right;points=[];portConstraint=eastwest;strokeColor=inherit;" parent="kchw-U7hw0C-sCnVVzNL-59" vertex="1">
          <mxGeometry y="360" width="260" height="8" as="geometry" />
        </mxCell>
        <mxCell id="kchw-U7hw0C-sCnVVzNL-62" value="+ Task(TaskType, bool): constructor&lt;br&gt;+ ForceClose(bool): public virtual void&lt;br&gt;+ StartTask(): public virtual void&lt;br&gt;+ CompleteTask(): public virtual void&lt;br&gt;+ CloseTask(): protected void&lt;br&gt;+ FinishTask(): public virtual void&lt;br&gt;+ RemoveFromPackage(): public virtual void&lt;br&gt;+ SetPackage(Package): public void&lt;br&gt;+ SetCheckAll(bool): protected void&lt;br&gt;+ Subscribe(): public abstract void&lt;br&gt;+ SubscribeEvent(Events.EventDataCallback, EventType): public void&lt;br&gt;+ UnsubscribeEvent(Events.EventDataCallBack, EventType): public void&lt;br&gt;+ UnsubscribeAllEvents(): public void&lt;br&gt;+ EnableCondition(Enum): public void&lt;br&gt;+ DisableConditions(): public void&lt;br&gt;+ AddConditions(int[]): public void&lt;br&gt;+ CheckClearConditions(): private bool&lt;br&gt;+ GetNonClearedConditions(): protected List&amp;lt;int&amp;gt;&lt;br&gt;+ IsPreviousTasksCompleted(List&amp;lt;TaskType&amp;gt;: protected bool&lt;br&gt;+ Popup(string, MsgType, int): protected void&lt;br&gt;+ ToString(): public override string&lt;br&gt;+ CreateTaskMistake(string, int): public void&lt;br&gt;+ CreateGeneralMistake(string, int, bool): public static void&lt;br&gt;+ CreateTaskMistake(TaskType, string, int): public static void" style="text;strokeColor=none;fillColor=none;align=left;verticalAlign=top;spacingLeft=4;spacingRight=4;overflow=hidden;rotatable=0;points=[[0,0.5],[1,0.5]];portConstraint=eastwest;whiteSpace=wrap;html=1;" parent="kchw-U7hw0C-sCnVVzNL-59" vertex="1">
          <mxGeometry y="368" width="260" height="462" as="geometry" />
        </mxCell>
        <mxCell id="kchw-U7hw0C-sCnVVzNL-66" value="SceneScript (script)" style="swimlane;fontStyle=1;align=center;verticalAlign=top;childLayout=stackLayout;horizontal=1;startSize=26;horizontalStack=0;resizeParent=1;resizeParentMax=0;resizeLast=0;collapsible=1;marginBottom=0;whiteSpace=wrap;html=1;" parent="WIyWlLk6GJQsqaUBKTNV-1" vertex="1">
          <mxGeometry x="480" y="-130" width="160" height="130" as="geometry" />
        </mxCell>
        <mxCell id="kchw-U7hw0C-sCnVVzNL-68" value="" style="line;strokeWidth=1;fillColor=none;align=left;verticalAlign=middle;spacingTop=-1;spacingLeft=3;spacingRight=3;rotatable=0;labelPosition=right;points=[];portConstraint=eastwest;strokeColor=inherit;" parent="kchw-U7hw0C-sCnVVzNL-66" vertex="1">
          <mxGeometry y="26" width="160" height="8" as="geometry" />
        </mxCell>
        <mxCell id="kchw-U7hw0C-sCnVVzNL-69" value="+ Awake(): protected virtual void&lt;br&gt;+ Start(): protected virtual void&lt;br&gt;+ Restart(): public virtual void" style="text;strokeColor=none;fillColor=none;align=left;verticalAlign=top;spacingLeft=4;spacingRight=4;overflow=hidden;rotatable=0;points=[[0,0.5],[1,0.5]];portConstraint=eastwest;whiteSpace=wrap;html=1;" parent="kchw-U7hw0C-sCnVVzNL-66" vertex="1">
          <mxGeometry y="34" width="160" height="96" as="geometry" />
        </mxCell>
        <mxCell id="kchw-U7hw0C-sCnVVzNL-73" value="TaskType (script)" style="swimlane;fontStyle=1;align=center;verticalAlign=top;childLayout=stackLayout;horizontal=1;startSize=26;horizontalStack=0;resizeParent=1;resizeParentMax=0;resizeLast=0;collapsible=1;marginBottom=0;whiteSpace=wrap;html=1;" parent="WIyWlLk6GJQsqaUBKTNV-1" vertex="1">
          <mxGeometry x="-380" y="-414" width="240" height="760" as="geometry" />
        </mxCell>
        <mxCell id="kchw-U7hw0C-sCnVVzNL-74" value="+ public enum TaskType" style="text;strokeColor=none;fillColor=none;align=left;verticalAlign=top;spacingLeft=4;spacingRight=4;overflow=hidden;rotatable=0;points=[[0,0.5],[1,0.5]];portConstraint=eastwest;whiteSpace=wrap;html=1;" parent="kchw-U7hw0C-sCnVVzNL-73" vertex="1">
          <mxGeometry y="26" width="240" height="26" as="geometry" />
        </mxCell>
        <mxCell id="kchw-U7hw0C-sCnVVzNL-75" value="" style="line;strokeWidth=1;fillColor=none;align=left;verticalAlign=middle;spacingTop=-1;spacingLeft=3;spacingRight=3;rotatable=0;labelPosition=right;points=[];portConstraint=eastwest;strokeColor=inherit;" parent="kchw-U7hw0C-sCnVVzNL-73" vertex="1">
          <mxGeometry y="52" width="240" height="8" as="geometry" />
        </mxCell>
        <mxCell id="kchw-U7hw0C-sCnVVzNL-76" value="+&amp;nbsp;&amp;nbsp; &amp;nbsp; CorrectItemsInThroughputMedicine,&lt;br&gt;&lt;span style=&quot;background-color: initial;&quot;&gt;CorrectItemsInLaminarCabinetMedicine,&lt;br&gt;&lt;/span&gt;&lt;span style=&quot;background-color: initial;&quot;&gt;DisinfectBottleCap,&lt;br&gt;&lt;/span&gt;&lt;span style=&quot;background-color: initial;&quot;&gt;MedicineToSyringe,&lt;br&gt;&lt;/span&gt;&lt;span style=&quot;background-color: initial;&quot;&gt;LuerlockAttach,&lt;br&gt;&lt;/span&gt;&lt;span style=&quot;background-color: initial;&quot;&gt;SyringeAttach,&lt;br&gt;&lt;/span&gt;&lt;span style=&quot;background-color: initial;&quot;&gt;CorrectAmountOfMedicineTransferred,&lt;/span&gt;&lt;span style=&quot;background-color: initial;&quot;&gt;&lt;br&gt;&lt;/span&gt;&lt;div&gt;AllSyringesDone,&lt;/div&gt;&lt;div&gt;ItemsToSterileBag,&lt;/div&gt;&lt;div&gt;CleanTrashMedicine,&lt;/div&gt;&lt;div&gt;CorrectItemsInBasketMedicine,&lt;/div&gt;&lt;div&gt;CleanLaminarCabinetMedicine,&lt;/div&gt;&lt;div&gt;FinishMedicine,&lt;/div&gt;&lt;div&gt;CorrectItemsInThroughputMembrane,&lt;/div&gt;&lt;div&gt;SelectToolsMembrane,&lt;/div&gt;&lt;div&gt;WriteTextsToItems,&lt;/div&gt;&lt;div&gt;FillBottles,&lt;/div&gt;&lt;div&gt;AssemblePump,&lt;/div&gt;&lt;div&gt;OpenAgarplates,&lt;/div&gt;&lt;div&gt;WetFilter,&lt;/div&gt;&lt;div&gt;CorrectItemsInLaminarCabinetMembrane,&lt;/div&gt;&lt;div&gt;MedicineToFilter,&lt;/div&gt;&lt;div&gt;StartPump,&lt;/div&gt;&lt;div&gt;StartPumpAgain,&lt;/div&gt;&lt;div&gt;CutFilter,&lt;/div&gt;&lt;div&gt;FilterHalvesToBottles,&lt;/div&gt;&lt;div&gt;FinishMembrane,&lt;/div&gt;&lt;div&gt;Fingerprints,&lt;/div&gt;&lt;div&gt;OpenTweezersCover,&lt;/div&gt;&lt;div&gt;OpenScalpelCover,&lt;/div&gt;&lt;div&gt;OpenFilterCover,&lt;/div&gt;&lt;div&gt;OpenPipetteCover,&lt;/div&gt;&lt;div&gt;WriteSecondTime,&lt;/div&gt;&lt;div&gt;WearShoeCoversAndLabCoat,&lt;/div&gt;&lt;div&gt;WashGlasses,&lt;/div&gt;&lt;div&gt;WashHandsInChangingRoom,&lt;/div&gt;&lt;div&gt;GoToPreperationRoom,&lt;/div&gt;&lt;div&gt;WearHeadCoverAndFaceMask,&lt;/div&gt;&lt;div&gt;WashHandsInPreperationRoom,&lt;/div&gt;&lt;div&gt;WearSleeveCoversAndProtectiveGloves,&lt;/div&gt;&lt;div&gt;FinishChangingRoom,&lt;/div&gt;&lt;div&gt;CleanTrashMembrane,&lt;/div&gt;&lt;div&gt;CorrectItemsInBasketMembrane,&lt;/div&gt;&lt;div&gt;CleanLaminarCabinetMembrane,&lt;/div&gt;&lt;div&gt;CloseSettlePlates,&lt;/div&gt;&lt;div&gt;CloseFingertipPlates,&lt;/div&gt;&lt;div&gt;CloseBottles,&lt;/div&gt;&lt;div&gt;EmptyLaminarCabinetMembrane&lt;/div&gt;" style="text;strokeColor=none;fillColor=none;align=left;verticalAlign=top;spacingLeft=4;spacingRight=4;overflow=hidden;rotatable=0;points=[[0,0.5],[1,0.5]];portConstraint=eastwest;whiteSpace=wrap;html=1;" parent="kchw-U7hw0C-sCnVVzNL-73" vertex="1">
          <mxGeometry y="60" width="240" height="700" as="geometry" />
        </mxCell>
        <mxCell id="kchw-U7hw0C-sCnVVzNL-78" value="TaskFactory (script)" style="swimlane;fontStyle=1;align=center;verticalAlign=top;childLayout=stackLayout;horizontal=1;startSize=26;horizontalStack=0;resizeParent=1;resizeParentMax=0;resizeLast=0;collapsible=1;marginBottom=0;whiteSpace=wrap;html=1;" parent="WIyWlLk6GJQsqaUBKTNV-1" vertex="1">
          <mxGeometry x="160" y="-1020" width="160" height="160" as="geometry" />
        </mxCell>
        <mxCell id="kchw-U7hw0C-sCnVVzNL-79" value="public static class&lt;br&gt;+ tasks: private static Dictionary&amp;lt;TaskType, Task&amp;gt;" style="text;strokeColor=none;fillColor=none;align=left;verticalAlign=top;spacingLeft=4;spacingRight=4;overflow=hidden;rotatable=0;points=[[0,0.5],[1,0.5]];portConstraint=eastwest;whiteSpace=wrap;html=1;" parent="kchw-U7hw0C-sCnVVzNL-78" vertex="1">
          <mxGeometry y="26" width="160" height="54" as="geometry" />
        </mxCell>
        <mxCell id="kchw-U7hw0C-sCnVVzNL-80" value="" style="line;strokeWidth=1;fillColor=none;align=left;verticalAlign=middle;spacingTop=-1;spacingLeft=3;spacingRight=3;rotatable=0;labelPosition=right;points=[];portConstraint=eastwest;strokeColor=inherit;" parent="kchw-U7hw0C-sCnVVzNL-78" vertex="1">
          <mxGeometry y="80" width="160" height="8" as="geometry" />
        </mxCell>
        <mxCell id="kchw-U7hw0C-sCnVVzNL-81" value="+ GetTask(TaskType): public static&lt;br&gt;+ ResetTaskProgression(): public static void&lt;br&gt;" style="text;strokeColor=none;fillColor=none;align=left;verticalAlign=top;spacingLeft=4;spacingRight=4;overflow=hidden;rotatable=0;points=[[0,0.5],[1,0.5]];portConstraint=eastwest;whiteSpace=wrap;html=1;" parent="kchw-U7hw0C-sCnVVzNL-78" vertex="1">
          <mxGeometry y="88" width="160" height="72" as="geometry" />
        </mxCell>
        <mxCell id="kchw-U7hw0C-sCnVVzNL-89" style="edgeStyle=orthogonalEdgeStyle;rounded=0;orthogonalLoop=1;jettySize=auto;html=1;" parent="WIyWlLk6GJQsqaUBKTNV-1" source="kchw-U7hw0C-sCnVVzNL-85" target="kchw-U7hw0C-sCnVVzNL-73" edge="1">
          <mxGeometry relative="1" as="geometry">
            <Array as="points">
              <mxPoint x="-260" y="-470" />
              <mxPoint x="-260" y="-470" />
            </Array>
          </mxGeometry>
        </mxCell>
        <mxCell id="kchw-U7hw0C-sCnVVzNL-85" value="ScoreCalculator (script)" style="swimlane;fontStyle=1;align=center;verticalAlign=top;childLayout=stackLayout;horizontal=1;startSize=26;horizontalStack=0;resizeParent=1;resizeParentMax=0;resizeLast=0;collapsible=1;marginBottom=0;whiteSpace=wrap;html=1;" parent="WIyWlLk6GJQsqaUBKTNV-1" vertex="1">
          <mxGeometry x="-350" y="-1015" width="200" height="520" as="geometry" />
        </mxCell>
        <mxCell id="kchw-U7hw0C-sCnVVzNL-86" value="+ points: Dictionary&amp;lt;TaskType, int&amp;gt;&lt;br&gt;+ maxPoints: &amp;lt;TaskType, int&amp;gt;&lt;br&gt;+ maxScore: private int&lt;br&gt;+ Mistakes: Dictionary&amp;lt;string, int&amp;gt;&lt;br&gt;+ TaskMistakes: Dictionary&amp;lt;TaskType, HashSet&amp;lt;string&amp;gt;&amp;gt;&lt;br&gt;+ ColourCodes: private static readonly Dictionary&amp;lt;Colour, string&amp;gt;" style="text;strokeColor=none;fillColor=none;align=left;verticalAlign=top;spacingLeft=4;spacingRight=4;overflow=hidden;rotatable=0;points=[[0,0.5],[1,0.5]];portConstraint=eastwest;whiteSpace=wrap;html=1;" parent="kchw-U7hw0C-sCnVVzNL-85" vertex="1">
          <mxGeometry y="26" width="200" height="144" as="geometry" />
        </mxCell>
        <mxCell id="kchw-U7hw0C-sCnVVzNL-87" value="" style="line;strokeWidth=1;fillColor=none;align=left;verticalAlign=middle;spacingTop=-1;spacingLeft=3;spacingRight=3;rotatable=0;labelPosition=right;points=[];portConstraint=eastwest;strokeColor=inherit;" parent="kchw-U7hw0C-sCnVVzNL-85" vertex="1">
          <mxGeometry y="170" width="200" height="8" as="geometry" />
        </mxCell>
        <mxCell id="kchw-U7hw0C-sCnVVzNL-88" value="+ ScoreCalculator(List&amp;lt;Task&amp;gt;): constructor&lt;br&gt;+ CreateMistake(string, int): public void&lt;br&gt;+ CreateTaskMistake(TaskType, string): public void&lt;br&gt;+ AddTasks(List&amp;lt;Task&amp;gt;): private void&lt;br&gt;+ SubtractPoints(TaskType, int): public void&lt;br&gt;+ SetScoreToZero(TaskType): public void&lt;br&gt;+ Colour: public enum&lt;br&gt;&lt;span style=&quot;white-space: pre;&quot;&gt;&#x9;&lt;/span&gt;+ Yellow,&lt;br&gt;&lt;span style=&quot;white-space: pre;&quot;&gt;&#x9;&lt;/span&gt;Black,&lt;br&gt;&lt;span style=&quot;white-space: pre;&quot;&gt;&#x9;&lt;/span&gt;Green,&lt;br&gt;&lt;span style=&quot;white-space: pre;&quot;&gt;&#x9;&lt;/span&gt;Red,&lt;br&gt;&lt;span style=&quot;white-space: pre;&quot;&gt;&#x9;&lt;/span&gt;White,&lt;br&gt;&lt;span style=&quot;white-space: pre;&quot;&gt;&#x9;&lt;/span&gt;Blue&lt;br&gt;+ Text(string, Colour): private string&lt;br&gt;+ PrintPoints(int, int): private string&lt;br&gt;+ GetScoreString(): public Tuple&amp;lt;int, string&amp;gt;" style="text;strokeColor=none;fillColor=none;align=left;verticalAlign=top;spacingLeft=4;spacingRight=4;overflow=hidden;rotatable=0;points=[[0,0.5],[1,0.5]];portConstraint=eastwest;whiteSpace=wrap;html=1;" parent="kchw-U7hw0C-sCnVVzNL-85" vertex="1">
          <mxGeometry y="178" width="200" height="342" as="geometry" />
        </mxCell>
        <mxCell id="kchw-U7hw0C-sCnVVzNL-91" value="PackageName (script)" style="swimlane;fontStyle=1;align=center;verticalAlign=top;childLayout=stackLayout;horizontal=1;startSize=26;horizontalStack=0;resizeParent=1;resizeParentMax=0;resizeLast=0;collapsible=1;marginBottom=0;whiteSpace=wrap;html=1;" parent="WIyWlLk6GJQsqaUBKTNV-1" vertex="1">
          <mxGeometry x="230" y="250" width="160" height="160" as="geometry" />
        </mxCell>
        <mxCell id="kchw-U7hw0C-sCnVVzNL-92" value="public enum" style="text;strokeColor=none;fillColor=none;align=left;verticalAlign=top;spacingLeft=4;spacingRight=4;overflow=hidden;rotatable=0;points=[[0,0.5],[1,0.5]];portConstraint=eastwest;whiteSpace=wrap;html=1;" parent="kchw-U7hw0C-sCnVVzNL-91" vertex="1">
          <mxGeometry y="26" width="160" height="26" as="geometry" />
        </mxCell>
        <mxCell id="kchw-U7hw0C-sCnVVzNL-93" value="" style="line;strokeWidth=1;fillColor=none;align=left;verticalAlign=middle;spacingTop=-1;spacingLeft=3;spacingRight=3;rotatable=0;labelPosition=right;points=[];portConstraint=eastwest;strokeColor=inherit;" parent="kchw-U7hw0C-sCnVVzNL-91" vertex="1">
          <mxGeometry y="52" width="160" height="8" as="geometry" />
        </mxCell>
        <mxCell id="kchw-U7hw0C-sCnVVzNL-94" value="+ EquipmentSelection,&lt;br&gt;Workspace,&lt;br&gt;CleanUp,&lt;br&gt;ChangingRoom,&lt;br&gt;PreperationRoom,&lt;br&gt;FinishUp" style="text;strokeColor=none;fillColor=none;align=left;verticalAlign=top;spacingLeft=4;spacingRight=4;overflow=hidden;rotatable=0;points=[[0,0.5],[1,0.5]];portConstraint=eastwest;whiteSpace=wrap;html=1;" parent="kchw-U7hw0C-sCnVVzNL-91" vertex="1">
          <mxGeometry y="60" width="160" height="100" as="geometry" />
        </mxCell>
        <mxCell id="WyOUPJDRF6BB89pM1G4j-0" value="Events (script)" style="swimlane;fontStyle=1;align=center;verticalAlign=top;childLayout=stackLayout;horizontal=1;startSize=26;horizontalStack=0;resizeParent=1;resizeParentMax=0;resizeLast=0;collapsible=1;marginBottom=0;whiteSpace=wrap;html=1;" parent="WIyWlLk6GJQsqaUBKTNV-1" vertex="1">
          <mxGeometry x="-700" y="-200" width="240" height="590" as="geometry" />
        </mxCell>
        <mxCell id="WyOUPJDRF6BB89pM1G4j-1" value="+ public delegate void EventDataCallback(CallbackData)&lt;br&gt;+ eventsData: private static Dictionary&amp;lt;EventType, Delegate&amp;gt;&lt;br&gt;+ componentEventsData: private static Dictionary&lt;br&gt;+ componentsEventsNoData:&lt;br&gt;private static Dictionary&amp;lt;EventType, ComponentEventsContainer&amp;gt;" style="text;strokeColor=none;fillColor=none;align=left;verticalAlign=top;spacingLeft=4;spacingRight=4;overflow=hidden;rotatable=0;points=[[0,0.5],[1,0.5]];portConstraint=eastwest;whiteSpace=wrap;html=1;" parent="WyOUPJDRF6BB89pM1G4j-0" vertex="1">
          <mxGeometry y="26" width="240" height="144" as="geometry" />
        </mxCell>
        <mxCell id="WyOUPJDRF6BB89pM1G4j-2" value="" style="line;strokeWidth=1;fillColor=none;align=left;verticalAlign=middle;spacingTop=-1;spacingLeft=3;spacingRight=3;rotatable=0;labelPosition=right;points=[];portConstraint=eastwest;strokeColor=inherit;" parent="WyOUPJDRF6BB89pM1G4j-0" vertex="1">
          <mxGeometry y="170" width="240" height="8" as="geometry" />
        </mxCell>
        <mxCell id="WyOUPJDRF6BB89pM1G4j-3" value="+ Events(): static&lt;br&gt;+ Reset(): public static void&lt;br&gt;+ SubscribeToEvent(EventDataCallback, EventType): public static void&lt;br&gt;+ AddToDelegateDictionary&amp;lt;K&amp;gt;(Dictionary&amp;lt;K, Delegate&amp;gt;, K, Delegate)&lt;br&gt;+ SubscribeToEvent(EventDataCallback, Component, EventType): public static void&lt;br&gt;+ OverrideSubscription(EventDataCallback, EventType): public static void&lt;br&gt;+ SetValueDelegateDictionary&amp;lt;K&amp;gt;(Dictionary&amp;lt;K, Delegate&amp;gt;, K, Delegate): private static void&lt;br&gt;+ OverrideSubscription(EventDataCallback, Component, EventType): public static void&lt;br&gt;+ UnsubscribeFromEvent(EventDataCallback, EventType): public static void&lt;br&gt;+ UnsubscribeFromEvent(EventDataCallback, Component, EventType): public static void&lt;br&gt;+ FireEvent(EventType): public static void&lt;br&gt;+ FireEvent(EventType, CallbackData): public static void&lt;br&gt;+ CallDefaultCallbacks(EventType, CallbackData): private static void&lt;br&gt;+ CallComponentCallbacks(EventType, CallbackData): private static void" style="text;strokeColor=none;fillColor=none;align=left;verticalAlign=top;spacingLeft=4;spacingRight=4;overflow=hidden;rotatable=0;points=[[0,0.5],[1,0.5]];portConstraint=eastwest;whiteSpace=wrap;html=1;" parent="WyOUPJDRF6BB89pM1G4j-0" vertex="1">
          <mxGeometry y="178" width="240" height="412" as="geometry" />
        </mxCell>
        <mxCell id="W0nB9QTuxgTVNlyttxNB-7" style="edgeStyle=orthogonalEdgeStyle;rounded=0;orthogonalLoop=1;jettySize=auto;html=1;" edge="1" parent="WIyWlLk6GJQsqaUBKTNV-1" source="W0nB9QTuxgTVNlyttxNB-1" target="kchw-U7hw0C-sCnVVzNL-14">
          <mxGeometry relative="1" as="geometry" />
        </mxCell>
        <mxCell id="W0nB9QTuxgTVNlyttxNB-13" style="edgeStyle=orthogonalEdgeStyle;rounded=0;orthogonalLoop=1;jettySize=auto;html=1;" edge="1" parent="WIyWlLk6GJQsqaUBKTNV-1" source="W0nB9QTuxgTVNlyttxNB-1" target="W0nB9QTuxgTVNlyttxNB-27">
          <mxGeometry relative="1" as="geometry">
            <mxPoint x="90" y="-1070" as="targetPoint" />
            <Array as="points">
              <mxPoint x="90" y="-830" />
              <mxPoint x="90" y="-830" />
            </Array>
          </mxGeometry>
        </mxCell>
        <mxCell id="W0nB9QTuxgTVNlyttxNB-1" value="MainMenuFunctions" style="swimlane;fontStyle=1;align=center;verticalAlign=top;childLayout=stackLayout;horizontal=1;startSize=26;horizontalStack=0;resizeParent=1;resizeParentMax=0;resizeLast=0;collapsible=1;marginBottom=0;whiteSpace=wrap;html=1;" vertex="1" parent="WIyWlLk6GJQsqaUBKTNV-1">
          <mxGeometry x="-60" y="-754" width="160" height="340" as="geometry" />
        </mxCell>
        <mxCell id="W0nB9QTuxgTVNlyttxNB-2" value="+ levelChanger: private SceneLoader&lt;br&gt;+ sceneType: private int&lt;br&gt;+ mainMenuButtons: public GameObject&lt;br&gt;+ submenuButtons: public GameObject&lt;br&gt;+ startFromBeginning = true: public static bool" style="text;strokeColor=none;fillColor=none;align=left;verticalAlign=top;spacingLeft=4;spacingRight=4;overflow=hidden;rotatable=0;points=[[0,0.5],[1,0.5]];portConstraint=eastwest;whiteSpace=wrap;html=1;" vertex="1" parent="W0nB9QTuxgTVNlyttxNB-1">
          <mxGeometry y="26" width="160" height="144" as="geometry" />
        </mxCell>
        <mxCell id="W0nB9QTuxgTVNlyttxNB-3" value="" style="line;strokeWidth=1;fillColor=none;align=left;verticalAlign=middle;spacingTop=-1;spacingLeft=3;spacingRight=3;rotatable=0;labelPosition=right;points=[];portConstraint=eastwest;strokeColor=inherit;" vertex="1" parent="W0nB9QTuxgTVNlyttxNB-1">
          <mxGeometry y="170" width="160" height="8" as="geometry" />
        </mxCell>
        <mxCell id="W0nB9QTuxgTVNlyttxNB-4" value="+ Start(): private void&lt;br&gt;+ ShowSubmenu(int): public void&lt;br&gt;+ HideSubmenu(): public void&lt;br&gt;+ LoadScene(int): public void&lt;br&gt;+ SetStartingPoint(string): public void&lt;br&gt;+ ExitGame(): public void" style="text;strokeColor=none;fillColor=none;align=left;verticalAlign=top;spacingLeft=4;spacingRight=4;overflow=hidden;rotatable=0;points=[[0,0.5],[1,0.5]];portConstraint=eastwest;whiteSpace=wrap;html=1;" vertex="1" parent="W0nB9QTuxgTVNlyttxNB-1">
          <mxGeometry y="178" width="160" height="162" as="geometry" />
        </mxCell>
        <mxCell id="W0nB9QTuxgTVNlyttxNB-18" style="edgeStyle=orthogonalEdgeStyle;rounded=0;orthogonalLoop=1;jettySize=auto;html=1;" edge="1" parent="WIyWlLk6GJQsqaUBKTNV-1" source="W0nB9QTuxgTVNlyttxNB-14" target="kchw-U7hw0C-sCnVVzNL-14">
          <mxGeometry relative="1" as="geometry">
            <Array as="points">
              <mxPoint x="-30" y="-830" />
              <mxPoint x="200" y="-830" />
            </Array>
          </mxGeometry>
        </mxCell>
        <mxCell id="W0nB9QTuxgTVNlyttxNB-19" style="edgeStyle=orthogonalEdgeStyle;rounded=0;orthogonalLoop=1;jettySize=auto;html=1;" edge="1" parent="WIyWlLk6GJQsqaUBKTNV-1" source="W0nB9QTuxgTVNlyttxNB-14" target="WyOUPJDRF6BB89pM1G4j-0">
          <mxGeometry relative="1" as="geometry">
            <Array as="points">
              <mxPoint x="-470" y="-1040" />
            </Array>
          </mxGeometry>
        </mxCell>
        <mxCell id="W0nB9QTuxgTVNlyttxNB-26" style="edgeStyle=orthogonalEdgeStyle;rounded=0;orthogonalLoop=1;jettySize=auto;html=1;" edge="1" parent="WIyWlLk6GJQsqaUBKTNV-1" source="W0nB9QTuxgTVNlyttxNB-14" target="W0nB9QTuxgTVNlyttxNB-20">
          <mxGeometry relative="1" as="geometry">
            <Array as="points">
              <mxPoint x="-80" y="-1060" />
              <mxPoint x="-80" y="-1060" />
            </Array>
          </mxGeometry>
        </mxCell>
        <mxCell id="W0nB9QTuxgTVNlyttxNB-35" style="edgeStyle=orthogonalEdgeStyle;rounded=0;orthogonalLoop=1;jettySize=auto;html=1;" edge="1" parent="WIyWlLk6GJQsqaUBKTNV-1" source="W0nB9QTuxgTVNlyttxNB-14" target="W0nB9QTuxgTVNlyttxNB-31">
          <mxGeometry relative="1" as="geometry">
            <Array as="points">
              <mxPoint x="-220" y="-1030" />
              <mxPoint x="-220" y="-1030" />
            </Array>
          </mxGeometry>
        </mxCell>
        <mxCell id="W0nB9QTuxgTVNlyttxNB-14" value="SceneLoader" style="swimlane;fontStyle=1;align=center;verticalAlign=top;childLayout=stackLayout;horizontal=1;startSize=26;horizontalStack=0;resizeParent=1;resizeParentMax=0;resizeLast=0;collapsible=1;marginBottom=0;whiteSpace=wrap;html=1;" vertex="1" parent="WIyWlLk6GJQsqaUBKTNV-1">
          <mxGeometry x="-110" y="-1055" width="160" height="210" as="geometry" />
        </mxCell>
        <mxCell id="W0nB9QTuxgTVNlyttxNB-15" value="+ scene: private string&lt;br&gt;+ fadeController: public CameraFadeController" style="text;strokeColor=none;fillColor=none;align=left;verticalAlign=top;spacingLeft=4;spacingRight=4;overflow=hidden;rotatable=0;points=[[0,0.5],[1,0.5]];portConstraint=eastwest;whiteSpace=wrap;html=1;" vertex="1" parent="W0nB9QTuxgTVNlyttxNB-14">
          <mxGeometry y="26" width="160" height="64" as="geometry" />
        </mxCell>
        <mxCell id="W0nB9QTuxgTVNlyttxNB-16" value="" style="line;strokeWidth=1;fillColor=none;align=left;verticalAlign=middle;spacingTop=-1;spacingLeft=3;spacingRight=3;rotatable=0;labelPosition=right;points=[];portConstraint=eastwest;strokeColor=inherit;" vertex="1" parent="W0nB9QTuxgTVNlyttxNB-14">
          <mxGeometry y="90" width="160" height="8" as="geometry" />
        </mxCell>
        <mxCell id="W0nB9QTuxgTVNlyttxNB-17" value="+ ChangeScene(string): private void&lt;br&gt;+ FadeOutScene(): public void&lt;br&gt;+ OnFaceComplete(): private void&lt;br&gt;+ LoadScene(): private void" style="text;strokeColor=none;fillColor=none;align=left;verticalAlign=top;spacingLeft=4;spacingRight=4;overflow=hidden;rotatable=0;points=[[0,0.5],[1,0.5]];portConstraint=eastwest;whiteSpace=wrap;html=1;" vertex="1" parent="W0nB9QTuxgTVNlyttxNB-14">
          <mxGeometry y="98" width="160" height="112" as="geometry" />
        </mxCell>
        <mxCell id="W0nB9QTuxgTVNlyttxNB-20" value="SceneManager (Unity native script)&lt;br&gt;" style="swimlane;fontStyle=1;align=center;verticalAlign=top;childLayout=stackLayout;horizontal=1;startSize=36;horizontalStack=0;resizeParent=1;resizeParentMax=0;resizeLast=0;collapsible=1;marginBottom=0;whiteSpace=wrap;html=1;" vertex="1" parent="WIyWlLk6GJQsqaUBKTNV-1">
          <mxGeometry x="-160" y="-1156" width="160" height="58" as="geometry" />
        </mxCell>
        <mxCell id="W0nB9QTuxgTVNlyttxNB-23" value="Check Unity documentation" style="text;strokeColor=none;fillColor=none;align=left;verticalAlign=top;spacingLeft=4;spacingRight=4;overflow=hidden;rotatable=0;points=[[0,0.5],[1,0.5]];portConstraint=eastwest;whiteSpace=wrap;html=1;" vertex="1" parent="W0nB9QTuxgTVNlyttxNB-20">
          <mxGeometry y="36" width="160" height="22" as="geometry" />
        </mxCell>
        <mxCell id="W0nB9QTuxgTVNlyttxNB-27" value="Application (Unity native script)" style="swimlane;fontStyle=1;align=center;verticalAlign=top;childLayout=stackLayout;horizontal=1;startSize=36;horizontalStack=0;resizeParent=1;resizeParentMax=0;resizeLast=0;collapsible=1;marginBottom=0;whiteSpace=wrap;html=1;" vertex="1" parent="WIyWlLk6GJQsqaUBKTNV-1">
          <mxGeometry x="10" y="-1156" width="160" height="62" as="geometry" />
        </mxCell>
        <mxCell id="W0nB9QTuxgTVNlyttxNB-30" value="Check Unitydocumentation" style="text;strokeColor=none;fillColor=none;align=left;verticalAlign=top;spacingLeft=4;spacingRight=4;overflow=hidden;rotatable=0;points=[[0,0.5],[1,0.5]];portConstraint=eastwest;whiteSpace=wrap;html=1;" vertex="1" parent="W0nB9QTuxgTVNlyttxNB-27">
          <mxGeometry y="36" width="160" height="26" as="geometry" />
        </mxCell>
        <mxCell id="W0nB9QTuxgTVNlyttxNB-31" value="Logger (script)" style="swimlane;fontStyle=1;align=center;verticalAlign=top;childLayout=stackLayout;horizontal=1;startSize=26;horizontalStack=0;resizeParent=1;resizeParentMax=0;resizeLast=0;collapsible=1;marginBottom=0;whiteSpace=wrap;html=1;" vertex="1" parent="WIyWlLk6GJQsqaUBKTNV-1">
          <mxGeometry x="-670" y="-1156" width="160" height="610" as="geometry" />
        </mxCell>
        <mxCell id="W0nB9QTuxgTVNlyttxNB-32" value="+ LogInGame: public static bool" style="text;strokeColor=none;fillColor=none;align=left;verticalAlign=top;spacingLeft=4;spacingRight=4;overflow=hidden;rotatable=0;points=[[0,0.5],[1,0.5]];portConstraint=eastwest;whiteSpace=wrap;html=1;" vertex="1" parent="W0nB9QTuxgTVNlyttxNB-31">
          <mxGeometry y="26" width="160" height="44" as="geometry" />
        </mxCell>
        <mxCell id="W0nB9QTuxgTVNlyttxNB-33" value="" style="line;strokeWidth=1;fillColor=none;align=left;verticalAlign=middle;spacingTop=-1;spacingLeft=3;spacingRight=3;rotatable=0;labelPosition=right;points=[];portConstraint=eastwest;strokeColor=inherit;" vertex="1" parent="W0nB9QTuxgTVNlyttxNB-31">
          <mxGeometry y="70" width="160" height="8" as="geometry" />
        </mxCell>
        <mxCell id="W0nB9QTuxgTVNlyttxNB-34" value="+ Print(object): public static void&lt;br&gt;+ PrintObjects(string, params object[]): public static void&lt;br&gt;+ PrintForma(string, params object[]): public static void&lt;br&gt;+ Warning(object): public static void&lt;br&gt;+ WarningObjects(string, params object[]): public static void&lt;br&gt;+ WarningFormat(string, params object[]): public static void&lt;br&gt;+ Error(string): public static void&lt;br&gt;+ Error(object): public static void&lt;br&gt;+ ErrorObjects(string, params object[]): public static void&lt;br&gt;+ ErrorFormat(string, params object[]): public static void&lt;br&gt;+ PrintVariables(params object[]): public static void&lt;br&gt;+ ObjectToString(object): private static string&lt;br&gt;+ ObjectsToString(string, params object[]): private static String&lt;br&gt;+ VarString(object): private static string&lt;br&gt;+ VarString(object, object): private static string" style="text;strokeColor=none;fillColor=none;align=left;verticalAlign=top;spacingLeft=4;spacingRight=4;overflow=hidden;rotatable=0;points=[[0,0.5],[1,0.5]];portConstraint=eastwest;whiteSpace=wrap;html=1;" vertex="1" parent="W0nB9QTuxgTVNlyttxNB-31">
          <mxGeometry y="78" width="160" height="532" as="geometry" />
        </mxCell>
        <mxCell id="W0nB9QTuxgTVNlyttxNB-36" style="edgeStyle=orthogonalEdgeStyle;rounded=0;orthogonalLoop=1;jettySize=auto;html=1;" edge="1" parent="WIyWlLk6GJQsqaUBKTNV-1" source="kchw-U7hw0C-sCnVVzNL-60" target="WyOUPJDRF6BB89pM1G4j-0">
          <mxGeometry relative="1" as="geometry" />
        </mxCell>
      </root>
    </mxGraphModel>
  </diagram>
</mxfile>
